
<svg xmlns="http://www.w3.org/2000/svg" version="1.1" xmlns:xlink="http://www.w3.org/1999/xlink" preserveAspectRatio="none" x="0px" y="0px" width="1016px" height="1016px" viewBox="0 0 1016 1016">
<defs>
<g id="Layer0_0_FILL">
<path fill="#323D30" stroke="none" d="
M 840.4 91.05
L 848.9 77.5 845.3 59.7 834.9 59.7 823.5 69.2 776.25 52.7 763.55 38.75 698.9 33.1 683.55 44.85 652.35 47.2 633.6 63.05 577.5 89.65 554.15 116.3 530.4 100.3 509.5 129.4 484.9 118.35 472.2 133.1 443.15 137.6 410.35 132.65 398.5 124.45 346.9 122.6 319.1 144.15 276.9 149.9 215.7 122.4 194.95 123.65 195.8 135.3 163 142.5 121.25 134.3 121.25 119.15 91.75 124.05 51.2 120.8 65.95 144.9 65.4 187 82.35 212.55 113.05 235.05 148.3 275.6 174.1 275.6 235.1 296.1 247.4 313.3 248.2 314.1 282.1 319.8 299.45 327 340.55 328.9 361.5 348 381.85 353.7 400.9 346.5 425.3 339.05 456 340.75 479.7 329.3 517.85 330.15 525.25 348.15 535 349.45 553.85 337.8 572.05 335.45 582.85 294.15 589.85 273.4 604.25 263.85 636.9 261.95 645.15 268.75 640.5 283.15 615.05 289.05 594.1 296.05 573.35 342.9 553.65 346.7 535.85 356.2 521.65 354.5 514.9 337.15 482.05 336.3 450.9 352.6 425.5 383.3 432.3 382.9 443.7 386.05 439.7 400.9 428.05 398.35 421.5 390.95 396.3 390.3 361.95 354.3 338.85 336.35 310.05 331.9 293.3 333.15 275.95 323.4 250.95 320.85 232.1 334.4 230 343.75 224.05 348.85 215.15 342.9 187.25 332.3 172.65 344.15 164.6 346.45 161.85 349.85 155.5 349.85 150.4 344.55 109.55 342.65 103.8 349.65 113.55 367.85 112.3 417.65 112.7 428.85 118.2 435.2 110.4 444.3 115.7 451.95 111.25 462.95 113.55 468.05 109.95 482 116.55 485.4 118.45 498.1 110.4 507.65 107.85 521.6 113.3 525.25 94.25 552.15 78.6 556.2 74.35 562.95 82.6 579.9 85.15 592.2 65.05 614.45 65.05 626.3 54.25 632.6 61.45 643.4 58.9 654.4 57.2 666.7 63.15 670.5 53 679.4 60.8 687.7 70.55 686.85 79.45 689.6 76.05 702.3 82.65 715 98.75 717.55 106.55 724.95 102.5 743.8 113.95 753.35 127.5 744.05 128.55 724.35 146.15 724.55 149.95 731.3 157.15 736.6 151.85 751.25 151.45 765 149.1 777.05 157.55 802.9 165.85 802.9 168.6 792.55 177.05 784.5 188.5 793.6 209.45 803.35 214.95 798.9 231.7 802.7 237 792.75 230.65 782.35 227.05 769.25 247.6 738.3 266.4 731.3 325.7 729.8 332.7 723.25 343.9 717.35 355.35 721.55 380.4 713.95 391.85 716.5 419.35 704.2 434.8 700.2 435.9 683.45 427.4 676.9 422.1 661.85 434.6 652.75 451.15 660.55 467.65 649.15 487.35 643.85 491.6 629.45 507.45 617.35 507.7 631.15 519.1 641.3 540.5 638.55 561.05 628.6 555.75 612.5 559.55 605.3 588.6 619.9 612.3 614 627.75 620.95 624.8 641.1 644.5 641.5 662.5 634.95 677.75 650.85 685.6 669.9 693 673.3 705.3 640.85 728.75 624.15 751.45 635 759.5 632.65 788.05 638.15 794.65 676.05 827.05 683.05 841.85 669.9 862.2 667.15 870.25 650.25 887.4 649.8 893.35 622.7 905.2 600.05 920.45 582.2 931.05 588.6 953.5 593.65 950.75 584.75 961.35 579.9 952.65 573.75 940.6 559.15 947.8 527.15 942.05 505.15 924.9 498.35 908.4 507.9 892.7 503.2 877.9 504.7 867.3 493.9 858.85 492 856.3 479.3 871.1 472.1 869.4 460.45 879.15 447.1 893.75 447.1 892.3 432.3 904.35 416.8 904.8 406.45 896.75 396.9 879.35 389.95 878.1 367.25 869.65 360.25 867.1 346.7 877.45 333.15 877.7 333.15 887.4 320.45 880.85 299.9 857.55 278.5 857.35 277.25 858 257.1 876 232.1 881.7 216.65 856.1 207.75 830.9 196.55 827.7 179.8 836.4 170.9 839.35 156.7 857.35 135.95 860.1 119 873.65 110.5 876.45 99.95 859.7 90.2 845.7 99.3 840.4 91.05
M 638.25 993.25
L 638.8 1000.75 649.75 987.3 638.25 993.25
M 633.45 979.6
L 643.35 971.3 641.5 965.15 631.95 972.3 633.45 979.6
M 610.3 971.75
L 619.65 967.95 614 962.4 610.3 971.75
M 595.1 940.25
L 590.85 935.6 595.1 951.85 595.1 940.25
M 380.35 722.9
L 378.15 718.2 367.35 721.35 366.8 726.4 380.35 722.9
M 386 362.9
L 400.65 373.6 421.5 375.5 432.25 367 447.3 347.3 423.8 345.4 404.15 354.1 402.4 358.95 386 362.9
M 448.85 66.85
L 454.3 70.75 459.4 68.55 454.45 64.95 448.85 66.85
M 662.25 978.5
L 661.6 972.2 652.05 975.9 647.6 983.7 656.6 985.35 658.45 979.6 662.25 978.5
M 866.15 970.3
L 860.7 970.3 861.5 976.15 866.6 975.5 866.15 970.3
M 854 814.7
Q 853.06953125 813.0412109375 853.05 812.75
L 848.9 818.15 855.15 816.8
Q 854.55 815.75 854 814.7
M 708.2 703.05
L 691.85 707.7 668.7 707.95 658.05 697.8 649.4 695 638.35 685.25 623.7 687.6 600.6 675.9 580.2 675.7 561.55 677.85 549.65 665.9 509.15 687.75 466.5 698.15 456.3 710.25 433.6 727.65 427.25 741.85 409.65 752.7 377.6 784.95 360 805.95 363.6 824.4 396.25 857.95 404.35 858.15 404.1 866.65 423 875.55 427.05 897.85 447 909.5 459.5 921.8 473.9 918 482 924.15 498.3 916.5 530.55 928.8 549.65 926.05 575.75 927.95 577.9 919.7 586.6 916.5 595.5 920.95 601.85 908.45 612.45 910.35 612.25 923.1 621.6 920.75 620.1 912.9 636.45 907.15 644.3 908.45 656.2 886.15 663.85 884.5 667.9 869.4 676.35 869.6 676.8 890.65 683.8 879.6 691 884.9 706.5 892.75 717.5 890.2 715.8 883.85 726.85 883.4 723.9 893.15 733.45 896.8 746.6 891.5 748.5 879.4 742.75 870.25 757.6 862.2 754.45 850.75 770.55 822.95 788.15 811.3 784.15 796.2 791.55 789.45 804.3 784.95 796.65 766.9 792 764.8 773.75 737.4 750.4 726.4 742.75 731.25 708.2 703.05
M 1002.8 15.85
L 992.85 14.9
Q 992.95 14.85 986 5.4
L 979.05 14.55
Q 979.1 14.5 965.95 16.4
L 969.55 24.65 964.6 32.15 976.25 30.15 983.4 31.2 990 35.2 1002.95 32.05
Q 1003.05 32.05 1002.8 15.85 Z"/>
</g>
</defs>

<g transform="matrix( 1, 0, 0, 1, 0,0) ">
<use xlink:href="#Layer0_0_FILL"/>
</g>
</svg>
